<?xml version="1.0" encoding="UTF-8"?>
<svg id="Layer_1" xmlns="http://www.w3.org/2000/svg" version="1.1" viewBox="0 0 723.57 160">
  <!-- Generator: Adobe Illustrator 29.8.1, SVG Export Plug-In . SVG Version: 2.1.1 Build 2)  -->
  <defs>
    <style>
      .st0 {
        fill: #b3f200;
      }
    </style>
  </defs>
  <path class="st0" d="M157.41,12.33l-42.36,136.42c-.19.62-.77,1.04-1.42,1.04h-61.52c-.65,0-1.23-.42-1.42-1.04L8.33,12.33c-.3-.95.42-1.93,1.42-1.93h51.67c.69,0,1.28.47,1.45,1.14l-9.65,103.79c.37,1.51,2.52,1.51,2.89,0L102.89,11.54c.16-.67.76-1.14,1.45-1.14h51.67c1,0,1.72.97,1.42,1.93h-.02Z"/>
  <line class="st0" x1="102.08" y1="13.32" x2="102.77" y2="11.79"/>
  <g>
    <path class="st0" d="M215.31,11.65v136.7c0,.8-.64,1.44-1.44,1.44h-51.94c-.8,0-1.44-.64-1.44-1.44V11.65c0-.8.64-1.44,1.44-1.44h51.94c.8,0,1.44.64,1.44,1.44Z"/>
    <path class="st0" d="M353.25,11.7v44.12c0,.83-.67,1.49-1.49,1.49h-35.87c-.82,0-1.49.67-1.49,1.49v89.51c0,.83-.67,1.49-1.49,1.49h-51.65c-.82,0-1.49-.67-1.49-1.49V58.8c0-.82-.67-1.49-1.49-1.49h-35.87c-.82,0-1.49-.67-1.49-1.49V11.7c0-.82.67-1.49,1.49-1.49h129.35c.82,0,1.48.66,1.5,1.49Z"/>
    <path class="st0" d="M413.71,11.65v136.7c0,.8-.64,1.44-1.44,1.44h-51.94c-.8,0-1.44-.64-1.44-1.44V11.65c0-.8.64-1.44,1.44-1.44h51.94c.8,0,1.44.64,1.44,1.44Z"/>
    <path class="st0" d="M568.01,149.79h-56.29c-.56,0-1.08-.3-1.36-.79l-26.11-45.34c-.8-1.39-2.93-.83-2.93.79v43.76c0,.87-.7,1.57-1.57,1.57h-51.67c-.87,0-1.57-.71-1.57-1.57V11.78c0-.87.7-1.57,1.57-1.57h51.67c.87,0,1.57.7,1.57,1.57v42.33c0,1.6,2.11,2.18,2.92.81l26.11-43.94c.29-.48.8-.77,1.35-.77h56.26c1.22,0,1.98,1.33,1.35,2.38l-38.94,65.52c-.29.48-.3,1.09,0,1.59l39.01,67.73c.61,1.05-.15,2.36-1.36,2.36Z"/>
    <path class="st0" d="M715.31,80c0,43.28-32.25,73.51-78.41,73.51s-78.4-30.23-78.4-73.51S590.74,6.49,636.9,6.49s78.41,30.23,78.41,73.51ZM658.14,80c0-12.65-8.93-21.82-21.24-21.82s-21.23,9.18-21.23,21.82,9.52,21.82,21.23,21.82,21.24-9.79,21.24-21.82Z"/>
  </g>
</svg>